<?xml version="1.0" encoding="UTF-8" standalone="no"?>
<svg
   xmlns:dc="http://purl.org/dc/elements/1.1/"
   xmlns:cc="http://creativecommons.org/ns#"
   xmlns:rdf="http://www.w3.org/1999/02/22-rdf-syntax-ns#"
   xmlns:svg="http://www.w3.org/2000/svg"
   xmlns="http://www.w3.org/2000/svg"
   xmlns:sodipodi="http://sodipodi.sourceforge.net/DTD/sodipodi-0.dtd"
   xmlns:inkscape="http://www.inkscape.org/namespaces/inkscape"
   version="1.1"
   id="svg813"
   width="184"
   height="48"
   viewBox="0 0 184 48"
   sodipodi:docname="coopenet-logo.svg"
   inkscape:version="1.0.1 (3bc2e813f5, 2020-09-07)">
  <metadata
     id="metadata819">
    <rdf:RDF>
      <cc:Work
         rdf:about="">
        <dc:format>image/svg+xml</dc:format>
        <dc:type
           rdf:resource="http://purl.org/dc/dcmitype/StillImage" />
        <dc:title />
      </cc:Work>
    </rdf:RDF>
  </metadata>
  <defs
     id="defs817" />
  <sodipodi:namedview
     pagecolor="#ffffff"
     bordercolor="#666666"
     borderopacity="1"
     objecttolerance="10"
     gridtolerance="10"
     guidetolerance="10"
     inkscape:pageopacity="0"
     inkscape:pageshadow="2"
     inkscape:window-width="1328"
     inkscape:window-height="730"
     id="namedview815"
     showgrid="false"
     inkscape:zoom="1.8925064"
     inkscape:cx="230.13036"
     inkscape:cy="8.765352"
     inkscape:current-layer="g821"
     inkscape:document-rotation="0"
     inkscape:window-x="1390"
     inkscape:window-y="30"
     inkscape:window-maximized="0" />
  <g
     inkscape:groupmode="layer"
     inkscape:label="Image"
     id="g821">
    <path
       d="m 50.321569,18.336213 c -6.221506,0 -10.393153,3.91991 -10.393153,9.853717 0,5.897844 4.171647,9.889677 10.393153,9.889677 6.185545,0 10.357191,-3.991833 10.357191,-9.889677 0,-5.933807 -4.171646,-9.853717 -10.357191,-9.853717 z m 0,4.603197 c 2.841035,0 4.818971,2.157747 4.818971,5.322444 0,3.164698 -1.977936,5.322446 -4.818971,5.322446 -2.876997,0 -4.81897,-2.157748 -4.81897,-5.322446 0,-3.164697 1.941973,-5.322444 4.81897,-5.322444 z"
       id="path833"
       style="font-style:normal;font-variant:normal;font-weight:600;font-stretch:normal;font-size:40px;line-height:1.25;font-family:Montserrat;-inkscape-font-specification:'Montserrat Semi-Bold';letter-spacing:-2.93px;fill:#00c8e8;fill-opacity:1;stroke:none;stroke-width:0.899062" />
    <path
       d="m 72.249663,18.336213 c -6.221507,0 -10.393153,3.91991 -10.393153,9.853717 0,5.897844 4.171646,9.889677 10.393153,9.889677 6.185544,0 10.357191,-3.991833 10.357191,-9.889677 0,-5.933807 -4.171647,-9.853717 -10.357191,-9.853717 z m 0,4.603197 c 2.841035,0 4.81897,2.157747 4.81897,5.322444 0,3.164698 -1.977935,5.322446 -4.81897,5.322446 -2.876998,0 -4.818971,-2.157748 -4.818971,-5.322446 0,-3.164697 1.941973,-5.322444 4.818971,-5.322444 z"
       id="path835"
       sodipodi:nodetypes="ssssssssss"
       style="font-style:normal;font-variant:normal;font-weight:600;font-stretch:normal;font-size:40px;line-height:1.25;font-family:Montserrat;-inkscape-font-specification:'Montserrat Semi-Bold';letter-spacing:-2.93px;fill:#00c8e8;fill-opacity:1;stroke:none;stroke-width:0.899062" />
    <path
       d="m 95.472405,18.336213 c -2.625261,0 -4.747046,1.078875 -6.11362,3.020848 v -2.841035 h -5.53822 v 26.324526 h 5.53822 v -9.781791 c 1.402535,1.941974 3.524321,3.020846 6.221506,3.020846 5.430329,0 8.990609,-3.919908 8.990609,-9.78179 0,-5.969769 -3.66817,-9.961604 -9.098495,-9.961604 z m -1.29464,15.1402 c -2.841045,0 -4.81898,-2.157748 -4.81898,-5.358408 0,-3.128735 1.977935,-5.322446 4.81898,-5.322446 2.841025,0 4.782998,2.229673 4.782998,5.322446 0,3.164697 -1.941973,5.358408 -4.782998,5.358408 z"
       id="path837"
       style="font-style:normal;font-variant:normal;font-weight:600;font-stretch:normal;font-size:40px;line-height:1.25;font-family:Montserrat;-inkscape-font-specification:'Montserrat Semi-Bold';letter-spacing:-2.93px;fill:#00c8e8;fill-opacity:1;stroke:none;stroke-width:0.899062" />
    <path
       d="m 115.71023,18.336213 c -5.89786,0 -9.96161,3.955872 -9.96161,9.925641 0,5.861883 3.9199,9.817753 10.10545,9.817753 3.48836,0 6.3294,-1.258686 8.27137,-3.416434 l -2.91296,-2.948922 c -1.33062,1.330612 -3.05681,2.049861 -4.8909,2.049861 -2.48141,0 -4.35145,-1.438499 -4.99878,-3.883946 h 13.88151 c 0.46752,-7.048644 -2.69717,-11.543953 -9.49408,-11.543953 z m -4.49532,8.271368 c 0.43156,-2.553335 2.08583,-4.207609 4.53128,-4.207609 2.55332,0 4.2076,1.654274 4.27953,4.207609 z"
       id="path839"
       style="font-style:normal;font-variant:normal;font-weight:600;font-stretch:normal;font-size:40px;line-height:1.25;font-family:Montserrat;-inkscape-font-specification:'Montserrat Semi-Bold';letter-spacing:-2.93px;fill:#00c8e8;fill-opacity:1;stroke:none;stroke-width:0.899062" />
    <path
       d="m 138.46541,18.300251 c -3.02085,0.03595 -5.32244,1.186761 -6.68901,3.596246 v -3.380471 h -5.53824 v 19.347808 h 5.53824 v -9.530055 c 0,-2.841034 1.65426,-4.926858 4.42337,-4.96282 2.37354,0 3.81203,1.510424 3.81203,3.95587 v 10.537005 h 5.53822 V 25.708519 c 0,-4.531271 -2.76911,-7.408268 -7.08461,-7.408268 z"
       id="path841"
       style="font-style:normal;font-variant:normal;font-weight:600;font-stretch:normal;font-size:40px;line-height:1.25;font-family:Montserrat;-inkscape-font-specification:'Montserrat Semi-Bold';letter-spacing:-2.93px;fill:#00c8e8;fill-opacity:1;stroke:none;stroke-width:0.899062" />
    <path
       d="m 157.04207,18.422904 c -5.89785,0 -9.9616,3.955872 -9.9616,9.925641 0,5.861883 3.91991,9.817753 10.10544,9.817753 3.48837,0 6.3294,-1.258686 8.27137,-3.416434 l -2.91296,-2.948922 c -1.33061,1.330612 -3.05681,2.049861 -4.8909,2.049861 -2.48141,0 -4.35145,-1.438499 -4.99878,-3.883946 h 13.88151 c 0.46752,-7.048644 -2.69717,-11.543953 -9.49408,-11.543953 z m -4.49532,8.271368 c 0.43156,-2.553335 2.08583,-4.207609 4.53128,-4.207609 2.55334,0 4.2076,1.654274 4.27953,4.207609 z"
       id="path843"
       style="font-style:normal;font-variant:normal;font-weight:600;font-stretch:normal;font-size:40px;line-height:1.25;font-family:Montserrat;-inkscape-font-specification:'Montserrat Semi-Bold';letter-spacing:-2.93px;fill:#00c8e8;fill-opacity:1;stroke:none;stroke-width:0.899062" />
    <path
       d="m 179.15681,32.721201 c -1.00694,0.467512 -1.87005,0.719249 -2.5893,0.719249 -1.18676,0.03595 -1.87005,-0.611363 -1.87005,-2.229674 v -7.983667 h 5.25052 v -3.847983 h -5.25052 V 14.05668 h -5.50226 v 5.322446 h -2.69718 v 3.812021 h 2.69718 v 8.954654 c 0,3.991834 2.62526,5.96977 6.07766,5.96977 1.79812,0 3.59624,-0.503474 5.03475,-1.330612 z"
       id="path845"
       style="font-style:normal;font-variant:normal;font-weight:600;font-stretch:normal;font-size:40px;line-height:1.25;font-family:Montserrat;-inkscape-font-specification:'Montserrat Semi-Bold';letter-spacing:-2.93px;fill:#00c8e8;fill-opacity:1;stroke:none;stroke-width:0.899062" />
    <g
       aria-label="C"
       transform="rotate(-22.411523)"
       id="text827"
       style="font-style:normal;font-variant:normal;font-weight:600;font-stretch:normal;font-size:50.1766px;line-height:1.25;font-family:Montserrat;-inkscape-font-specification:'Montserrat Semi-Bold';fill:#00c8e8;fill-opacity:1;stroke:none;stroke-width:1.25441">
      <path
         d="m 12.299916,47.613849 q -5.3187198,0 -9.6339075,-2.308123 -4.2650112,-2.3583 -6.7236646,-6.472782 -2.4084769,-4.114481 -2.4084769,-9.282671 0,-5.16819 2.4586535,-9.282671 2.4586534,-4.114482 6.7236646,-6.422605 4.3151877,-2.358301 9.6339079,-2.358301 4.315187,0 7.877726,1.505298 3.562539,1.505299 6.021192,4.365365 l -4.214834,3.963951 q -3.813422,-4.114481 -9.383025,-4.114481 -3.6127152,0 -6.4727814,1.605651 -2.8600663,1.555475 -4.4657176,4.365365 -1.60565122,2.809889 -1.60565122,6.372428 0,3.562539 1.60565122,6.372428 1.6056513,2.80989 4.4657176,4.415541 2.8600662,1.555475 6.4727814,1.555475 5.569603,0 9.383025,-4.164658 l 4.214834,4.014128 q -2.458653,2.860066 -6.071369,4.365364 -3.562538,1.505298 -7.877726,1.505298 z"
         style="fill:#00c8e8;fill-opacity:1;stroke-width:1.25441"
         id="path18" />
    </g>
    <g
       aria-label="globe-americas"
       id="text857"
       style="font-style:normal;font-weight:normal;font-size:20.189px;line-height:1.25;font-family:sans-serif;fill:#1a5fb4;fill-opacity:0.960784;stroke:none;stroke-width:0.504723"
       transform="matrix(0.89906168,0,0,0.89906168,-17.769486,54.923961)">
      <path
         d="m 44.304742,-45.489724 c -5.402134,0 -9.779046,4.416343 -9.779046,9.779046 0,5.402135 4.376912,9.779047 9.779046,9.779047 5.362703,0 9.779047,-4.376912 9.779047,-9.779047 0,-5.362703 -4.416344,-9.779046 -9.779047,-9.779046 z m 3.233395,14.116527 c -0.157727,0.157726 -0.315453,0.315453 -0.47318,0.433748 -0.118295,0.118295 -0.197158,0.276021 -0.23659,0.433748 -0.03943,0.23659 -0.07886,0.433748 -0.157726,0.670338 l -0.70977,1.853287 c -0.552043,0.118295 -1.104086,0.157726 -1.656129,0.157726 v -1.064654 c 0.03943,-0.512611 -0.315453,-1.419539 -0.906927,-2.011014 -0.23659,-0.236589 -0.354885,-0.552043 -0.354885,-0.906927 v -1.261813 c 0,-0.433748 -0.276022,-0.867496 -0.670338,-1.104086 -0.552043,-0.315453 -1.380107,-0.749201 -1.93215,-1.025222 -0.433748,-0.23659 -0.867496,-0.512612 -1.222381,-0.867496 h -0.03943 c -0.23659,-0.197159 -0.552043,-0.591475 -0.709769,-0.828065 -0.394317,-0.552043 -0.985791,-1.419539 -1.380108,-2.011013 0.828065,-1.813856 2.247604,-3.233395 4.061459,-4.022028 l 0.946359,0.47318 c 0.433749,0.197158 0.94636,-0.07886 0.94636,-0.552043 v -0.47318 c 0.276021,-0.03943 0.630906,-0.07886 0.946359,-0.07886 l 1.104086,1.104086 c 0.23659,0.23659 0.23659,0.670338 0,0.906928 l -0.157726,0.157726 -0.433749,0.433748 c -0.118294,0.118295 -0.118294,0.315453 0,0.433748 l 0.197159,0.197159 c 0.118295,0.118295 0.118295,0.315453 0,0.433748 l -0.315453,0.315453 c -0.03943,0.03943 -0.157727,0.07886 -0.23659,0.07886 v 0 h -0.354885 c -0.07886,0 -0.157727,0.03943 -0.197158,0.118295 l -0.394317,0.354885 c -0.07886,0.07886 -0.118295,0.157726 -0.118295,0.23659 0,0.03943 0.03943,0.118294 0.03943,0.157726 l 0.630906,1.222381 c 0.07886,0.197158 -0.03943,0.433748 -0.276021,0.433748 h -0.23659 c -0.07886,0 -0.157727,0 -0.197158,-0.03943 l -0.394317,-0.354884 c -0.07886,-0.07886 -0.276021,-0.118295 -0.394316,-0.118295 -0.07886,0 -0.157727,0 -0.197158,0 l -1.222381,0.433748 c -0.197158,0.03943 -0.315453,0.236589 -0.315453,0.433748 v 0 c 0,0.197158 0.07886,0.354884 0.23659,0.433748 l 0.433748,0.197158 c 0.394316,0.197158 0.788633,0.276021 1.222381,0.276021 0.394316,0 0.867496,1.104086 1.261812,1.261813 h 2.602488 c 0.354885,0 0.670338,0.157726 0.906928,0.394316 l 0.552043,0.552043 c 0.197158,0.157727 0.354885,0.552043 0.354885,0.828065 v 0 c 0,0.433748 -0.276022,1.025222 -0.552043,1.301244 z m 3.430552,-3.588279 c -0.23659,-0.07886 -0.433748,-0.197159 -0.591474,-0.394317 l -0.70977,-1.064654 c -0.07886,-0.157727 -0.157726,-0.354885 -0.157726,-0.552043 0,-0.157727 0.07886,-0.354885 0.157726,-0.512611 l 0.788633,-1.143518 c 0.07886,-0.157726 0.197158,-0.23659 0.354885,-0.315453 l 0.512611,-0.276021 c 0.552043,1.064654 0.867496,2.247603 0.867496,3.509415 0,0.354885 -0.03943,0.70977 -0.07886,1.025223 z"
         style="font-style:normal;font-variant:normal;font-weight:900;font-stretch:normal;font-family:'Font Awesome 5 Free';-inkscape-font-specification:'Font Awesome 5 Free Heavy';fill:#1a5fb4;fill-opacity:0.960784;stroke-width:0.504723"
         id="path859" />
    </g>
  </g>
</svg>
